HIERARCHY
ROOT Hips
{
	OFFSET 0.00000 0.00000 0.00000
	CHANNELS 6 Xposition Yposition Zposition Zrotation Yrotation Xrotation 
	JOINT LHipJoint
	{
		OFFSET 0 0 0
		CHANNELS 3 Zrotation Yrotation Xrotation
		JOINT LeftUpLeg
		{
			OFFSET 1.26600 -1.82114 0.91038
			CHANNELS 3 Zrotation Yrotation Xrotation
			JOINT LeftLeg
			{
				OFFSET 2.50076 -6.87080 0.00000
				CHANNELS 3 Zrotation Yrotation Xrotation
				JOINT LeftFoot
				{
					OFFSET 2.57364 -7.07102 0.00000
					CHANNELS 3 Zrotation Yrotation Xrotation
					JOINT LeftToeBase
					{
						OFFSET 0.13572 -0.37290 1.97004
						CHANNELS 3 Zrotation Yrotation Xrotation
						End Site
						{
							OFFSET 0.00000 -0.00000 1.01383
						}
					}
				}
			}
		}
	}
	JOINT RHipJoint
	{
		OFFSET 0 0 0
		CHANNELS 3 Zrotation Yrotation Xrotation
		JOINT RightUpLeg
		{
			OFFSET -1.20803 -1.82114 0.91038
			CHANNELS 3 Zrotation Yrotation Xrotation
			JOINT RightLeg
			{
				OFFSET -2.54916 -7.00377 0.00000
				CHANNELS 3 Zrotation Yrotation Xrotation
				JOINT RightFoot
				{
					OFFSET -2.56374 -7.04382 0.00000
					CHANNELS 3 Zrotation Yrotation Xrotation
					JOINT RightToeBase
					{
						OFFSET -0.23520 -0.64621 2.09921
						CHANNELS 3 Zrotation Yrotation Xrotation
						End Site
						{
							OFFSET -0.00000 -0.00000 1.10065
						}
					}
				}
			}
		}
	}
	JOINT LowerBack
	{
		OFFSET 0 0 0
		CHANNELS 3 Zrotation Yrotation Xrotation
		JOINT Spine
		{
			OFFSET 0.05492 2.10797 -0.12074
			CHANNELS 3 Zrotation Yrotation Xrotation
			JOINT Spine1
			{
				OFFSET 0.04577 2.11592 -0.04483
				CHANNELS 3 Zrotation Yrotation Xrotation
				JOINT Neck
				{
					OFFSET 0 0 0
					CHANNELS 3 Zrotation Yrotation Xrotation
					JOINT Neck1
					{
						OFFSET -0.10759 1.80167 0.15770
						CHANNELS 3 Zrotation Yrotation Xrotation
						JOINT Head
						{
							OFFSET 0.09237 1.77509 -0.40848
							CHANNELS 3 Zrotation Yrotation Xrotation
							End Site
							{
								OFFSET 0.03805 1.84093 -0.15754
							}
						}
					}
				}
				JOINT LeftShoulder
				{
					OFFSET 0 0 0
					CHANNELS 3 Zrotation Yrotation Xrotation
					JOINT LeftArm
					{
						OFFSET 3.42372 1.09575 -0.28209
						CHANNELS 3 Zrotation Yrotation Xrotation
						JOINT LeftForeArm
						{
							OFFSET 4.95681 -0.00000 0.00000
							CHANNELS 3 Zrotation Yrotation Xrotation
							JOINT LeftHand
							{
								OFFSET 3.40915 -0.00000 0.00000
								CHANNELS 3 Zrotation Yrotation Xrotation
								JOINT LeftFingerBase
								{
									OFFSET 0 0 0
									CHANNELS 3 Zrotation Yrotation Xrotation
									JOINT LeftHandIndex1
									{
										OFFSET 0.61640 -0.00000 0.00000
										CHANNELS 3 Zrotation Yrotation Xrotation
										End Site
										{
											OFFSET 0.49696 -0.00000 0.00000
										}
									}
								}
								JOINT LThumb
								{
									OFFSET 0 0 0
									CHANNELS 3 Zrotation Yrotation Xrotation
									End Site
									{
										OFFSET 0.50455 -0.00000 0.50455
									}
								}
							}
						}
					}
				}
				JOINT RightShoulder
				{
					OFFSET 0 0 0
					CHANNELS 3 Zrotation Yrotation Xrotation
					JOINT RightArm
					{
						OFFSET -3.24731 1.15872 -0.32221
						CHANNELS 3 Zrotation Yrotation Xrotation
						JOINT RightForeArm
						{
							OFFSET -5.35200 -0.00000 0.00000
							CHANNELS 3 Zrotation Yrotation Xrotation
							JOINT RightHand
							{
								OFFSET -3.43721 -0.00000 -0.00000
								CHANNELS 3 Zrotation Yrotation Xrotation
								JOINT RightFingerBase
								{
									OFFSET 0 0 0
									CHANNELS 3 Zrotation Yrotation Xrotation
									JOINT RightHandIndex1
									{
										OFFSET -0.72009 -0.00000 0.00000
										CHANNELS 3 Zrotation Yrotation Xrotation
										End Site
										{
											OFFSET -0.58056 -0.00000 0.00000
										}
									}
								}
								JOINT RThumb
								{
									OFFSET 0 0 0
									CHANNELS 3 Zrotation Yrotation Xrotation
									End Site
									{
										OFFSET -0.58942 -0.00000 0.58942
									}
								}
							}
						}
					}
				}
			}
		}
	}
}
MOTION
Frames: 8
Frame Time: .0083333
-12.2964 17.4956 9.2967 0 0 0 0 0 0 -21 0 0 0 0 0 0 0 0 0 0 0 0 0 0 21 0 0 0 0 0 0 0 0 0 0 0 0 0 0 0 0 0 0 0 0 0 0 -16 0 0 21 0 0 11 0 0 0 -8 0 0 0 0 0 0 0 0 0 0 0 0 0 0 0 0 0 0 0 0 8 0 0 0 0 0 0 0 0 0 0 0 0 0 0 0 0 0
-12.2964 17.4956 9.2967 -3.1941 -3.3990 4.1536 0.0000 0.0000 0.0000 -16.4034 -1.3524 -10.1192 2.4440 9.7354 28.1240 0.9214 -9.9448 -17.4653 0.0000 -0.0315 -0.0867 0.0000 0.0000 0.0000 27.1150 2.8139 -10.4286 -2.8037 -10.3702 30.1842 -1.2559 6.8031 -20.0271 -0.6973 -5.3379 14.8749 1.3676 -0.8165 0.9409 3.0967 -1.1053 1.3057 2.4112 -0.5578 0.8463 -7.9279 -1.2594 -15.2865 2.5192 -0.3179 37.5996 2.4391 -0.9433 15.9643 -0.0000 0.0000 0.0000 -89.2229 1.8663 19.0584 15.5585 -24.9184 -3.4578 -0.0000 0.0000 -0.6480 19.6783 19.9492 6.9567 -7.1250 0.0000 -0.0000 -8.7803 50.8538 -1.2748 -0.0000 0.0000 0.0000 87.0498 1.4078 20.9526 -15.0105 24.1607 -3.2302 0.0000 -0.0000 -8.9815 -20.7284 11.8063 -4.4276 7.1250 -0.0000 -0.0000 4.5007 -17.4055 2.9575
-12.3086 17.4921 9.2970 -3.0617 -3.2019 4.1315 0.0000 0.0000 0.0000 -16.4870 -1.4332 -10.3107 2.5024 9.8423 28.4677 0.8863 -9.9334 -17.1577 0.0018 -0.2741 -0.7531 0.0000 0.0000 0.0000 27.0031 2.5537 -10.5281 -2.8173 -10.3932 30.2596 -1.2639 7.0117 -20.0904 -0.7471 -5.5211 15.4010 1.2157 -0.7971 0.9656 3.1355 -1.0824 1.3927 2.5363 -0.5483 0.9246 -7.8727 -1.2437 -15.1374 2.1571 -0.1818 37.4022 2.2905 -0.9213 15.8217 0.0000 0.0000 0.0000 -89.2907 1.7872 19.1908 15.7030 -25.1163 -3.5189 -0.0000 0.0000 -0.3649 19.1995 20.2654 6.8775 -7.1250 0.0000 -0.0000 -9.3550 51.0983 -1.4160 0.0000 0.0000 0.0000 86.8852 1.5223 20.9751 -15.0831 24.2617 -3.2600 0.0000 -0.0000 -9.3565 -20.8599 12.2952 -4.6392 7.1250 -0.0000 -0.0000 4.4242 -16.8760 2.9582
-12.3204 17.4895 9.2996 -3.6567 -3.0302 4.2753 0.0000 0.0000 0.0000 -15.7489 -1.4018 -10.8299 2.6171 10.0478 29.1316 0.8753 -10.0622 -17.0850 0.0055 -0.4793 -1.3169 0.0000 0.0000 0.0000 27.7046 2.5031 -10.5700 -2.7961 -10.3574 30.1420 -1.2585 6.9547 -20.0473 -0.7196 -5.4208 15.1128 1.8185 -0.7914 0.9076 3.3610 -1.0791 1.4471 2.4291 -0.5421 1.0066 -7.7267 -1.1521 -15.1864 1.7605 0.0725 37.3697 2.1369 -0.8471 15.8031 -0.0000 -0.0000 0.0000 -89.3227 1.6690 19.4445 15.7848 -25.2280 -3.5537 -0.0000 0.0000 -0.8215 19.4980 20.0362 6.9169 -7.1250 0.0000 -0.0000 -8.9855 50.9131 -1.3182 -0.0000 -0.0000 0.0000 86.7490 1.5367 21.2651 -15.2361 24.4740 -3.3231 0.0000 -0.0000 -9.7423 -20.6207 11.4955 -4.2886 7.1250 -0.0000 -0.0000 4.5675 -17.7440 2.9677
-12.3321 17.4892 9.3036 -4.0589 -2.9527 4.3101 0.0000 0.0000 0.0000 -15.2634 -1.4319 -11.1720 2.7185 10.2248 29.7077 0.8970 -9.9266 -17.2496 0.0358 -1.2221 -3.3600 0.0000 0.0000 0.0000 28.1775 2.5074 -10.5666 -2.7988 -10.3619 30.1569 -1.2637 6.9555 -20.0886 -0.6937 -5.3242 14.8357 2.3121 -0.7300 0.9385 3.4197 -0.9975 1.5040 2.2129 -0.4963 1.0384 -7.6225 -1.0350 -15.1849 1.8041 0.2035 37.3991 2.1612 -0.7706 15.8063 0.0000 -0.0000 0.0000 -89.1695 1.6294 20.0168 15.8764 -25.3528 -3.5929 -0.0000 0.0000 -1.9257 20.3967 19.5714 7.1000 -7.1250 0.0000 -0.0000 -7.9567 50.5829 -1.1007 0.0000 -0.0000 0.0000 86.7831 1.4869 21.1586 -15.3680 24.6563 -3.3780 0.0000 -0.0000 -9.2783 -19.9104 10.5905 -3.8085 7.1250 -0.0000 -0.0000 5.0483 -18.7571 3.1692
-12.3488 17.4885 9.2971 -3.9398 -2.9412 4.2993 0.0000 0.0000 0.0000 -15.3178 -1.5805 -11.5695 2.8430 10.4364 30.4019 0.9156 -9.7959 -17.3893 0.1426 -2.4337 -6.7058 0.0000 0.0000 0.0000 28.1191 2.7023 -10.5273 -2.7948 -10.3552 30.1349 -1.2733 6.8967 -20.1670 -0.7475 -5.5226 15.4053 2.1920 -0.6230 1.0650 3.3469 -0.8523 1.5917 2.2062 -0.4244 1.0546 -7.8547 -1.0498 -15.2998 2.2370 0.1078 37.5341 2.3779 -0.7858 15.9053 -0.0000 0.0000 0.0000 -88.9698 1.5120 20.6459 16.0167 -25.5433 -3.6532 -0.0000 0.0000 -2.6219 21.0464 19.3703 7.2731 -7.1250 0.0000 -0.0000 -7.2595 50.4812 -0.9851 -0.0000 0.0000 0.0000 86.7640 1.7054 20.9121 -15.3018 24.5648 -3.3504 0.0000 -0.0000 -8.7451 -18.9608 10.2147 -3.4865 7.1250 -0.0000 -0.0000 5.7166 -19.2213 3.5335
-12.3651 17.4718 9.2863 -3.8677 -2.8726 4.2430 0.0000 0.0000 0.0000 -15.2901 -1.7887 -11.9370 2.9848 10.6704 31.1760 0.9304 -9.8285 -17.5236 0.3734 -3.9250 -10.8656 0.0000 0.0000 0.0000 28.1403 2.8289 -10.4220 -2.7859 -10.3401 30.0851 -1.2911 6.7096 -20.3131 -0.7615 -5.5729 15.5501 2.0323 -0.5955 1.3321 3.3680 -0.8085 1.6797 2.3200 -0.4047 0.9967 -8.0360 -1.0366 -15.4545 2.3753 0.1554 37.6633 2.4833 -0.7758 16.0056 -0.0000 0.0000 0.0000 -88.9478 1.3879 20.7726 16.1966 -25.7864 -3.7311 -0.0000 0.0000 -2.5589 21.0206 19.5697 7.3345 -7.1250 0.0000 -0.0000 -7.3445 50.6843 -1.0336 -0.0000 0.0000 0.0000 86.6615 1.8833 21.4849 -15.1247 24.3196 -3.2771 0.0000 -0.0000 -9.4193 -19.6708 10.5863 -3.7575 7.1250 -0.0000 -0.0000 5.2177 -18.7795 3.2738
-12.3748 17.4487 9.2847 -4.1941 -2.6374 4.0459 0.0000 0.0000 0.0000 -14.8401 -2.0373 -12.1331 3.1469 10.9292 32.0413 0.9581 -9.9911 -17.7883 0.5463 -4.7353 -13.1551 0.0000 0.0000 0.0000 28.5419 2.4966 -10.2133 -2.7710 -10.3148 30.0024 -1.3062 6.8968 -20.4309 -0.7902 -5.6745 15.8429 2.3816 -0.6476 1.6726 3.4925 -0.8648 1.7777 2.2564 -0.4301 0.9051 -7.9976 -0.9818 -15.4835 2.1970 0.3015 37.6571 2.4245 -0.7333 16.0013 -0.0000 0.0000 0.0000 -88.9867 1.4658 20.8045 16.4595 -26.1397 -3.8462 -0.0000 0.0000 -2.5984 20.9170 19.5608 7.2922 -7.1250 0.0000 -0.0000 -7.4435 50.6579 -1.0428 -0.0000 0.0000 0.0000 86.5724 1.8761 21.6954 -15.0891 24.2701 -3.2625 0.0000 -0.0000 -9.6750 -20.1186 11.0369 -4.0115 7.1250 -0.0000 -0.0000 4.9095 -18.2701 3.1344
